<svg xmlns="http://www.w3.org/2000/svg" xmlns:xlink="http://www.w3.org/1999/xlink" width="2000" zoomAndPan="magnify" viewBox="0 0 1500 1499.999933" height="2000" preserveAspectRatio="xMidYMid meet" version="1.0"><defs><clipPath id="22587cf42e"><path d="M 200.625 0 L 1299.375 0 L 1299.375 1500 L 200.625 1500 Z M 200.625 0 " clip-rule="nonzero"/></clipPath></defs><g clip-path="url(#22587cf42e)"><path fill="#fdb90a" d="M 352.460938 1037 C 331.675781 1028.214844 312.570312 1024.03125 298.410156 1013.3125 C 270.886719 992.484375 241.628906 971.351562 221.328125 944.1875 C 193.015625 906.304688 188.480469 869.808594 241.226562 833.917969 C 314.363281 784.152344 338.667969 704.019531 345.40625 620.449219 C 351.269531 547.730469 349.921875 474.390625 350.769531 401.316406 C 353.46875 168.679688 537.539062 -7.566406 769.707031 0.6875 C 970.929688 7.839844 1141.777344 178.320312 1148.378906 379.421875 C 1151.03125 460.257812 1148.003906 541.480469 1154.734375 621.925781 C 1162.355469 712.96875 1193.210938 794.769531 1275.902344 847.605469 C 1297.902344 861.660156 1304.113281 883.585938 1295.792969 909.203125 C 1278.644531 961.984375 1241.519531 995.796875 1192.707031 1018.4375 C 1178.859375 1024.863281 1164.351562 1029.875 1149.25 1035.890625 C 1167.796875 1059.527344 1186.171875 1080.769531 1202.125 1103.695312 C 1244.761719 1164.976562 1269.015625 1232.945312 1273.984375 1307.785156 C 1278.871094 1381.4375 1239.265625 1443.902344 1166.628906 1456.714844 C 1064.292969 1474.769531 960.796875 1490.476562 857.191406 1496.136719 C 692.609375 1505.128906 528.363281 1497.507812 365.332031 1466.207031 C 255.035156 1445.03125 208.285156 1375.570312 231.542969 1259.617188 C 248.726562 1173.9375 290.128906 1101.394531 352.460938 1037 Z M 1093.519531 496.980469 L 1099.679688 496.238281 C 1099.679688 462.105469 1100.535156 427.945312 1099.542969 393.84375 C 1092.546875 152.796875 856.746094 -9.679688 631.519531 71.082031 C 493.351562 120.628906 402.398438 251.15625 399.90625 401.597656 C 398.535156 484.375 400.484375 567.667969 391.6875 649.738281 C 381.753906 742.414062 344.359375 824.703125 264.0625 880.265625 C 248.824219 890.8125 252.621094 900.292969 259.265625 911.976562 C 286.140625 959.222656 330.878906 979.351562 381.015625 988.949219 C 393.523438 991.34375 410.121094 987.933594 420.917969 981.042969 C 475.824219 946.015625 534.964844 922.464844 598.148438 907.722656 C 607.890625 905.453125 616.289062 897.429688 625.308594 892.066406 C 618.527344 881.886719 614.082031 867.773438 604.597656 862.144531 C 519.558594 811.667969 465.617188 738.617188 454.09375 640.753906 C 446.722656 578.183594 450.378906 514.144531 452.179688 450.851562 C 452.4375 441.875 469.554688 426.894531 480.039062 425.789062 C 532.355469 420.261719 568.234375 391.5625 595.773438 350.140625 C 607.554688 332.417969 615.945312 312.449219 626.089844 293.617188 C 637.996094 271.503906 662.363281 267.761719 671.054688 288.652344 C 701.445312 361.679688 765.320312 388.238281 833.667969 403.054688 C 892.269531 415.761719 953.066406 419 1013.089844 424.171875 C 1038.355469 426.347656 1050.332031 434.890625 1049.539062 461.523438 C 1048.316406 502.449219 1048.726562 543.441406 1049.3125 584.390625 C 1051.089844 708.703125 997.898438 801.417969 891.09375 864.574219 C 883.140625 869.273438 876.230469 881.960938 875.996094 891.113281 C 875.863281 896.421875 889.351562 905.242188 897.882812 907.101562 C 963.308594 921.363281 1024.503906 945.21875 1080.246094 982.6875 C 1086.558594 986.929688 1093.714844 991.953125 1100.847656 992.609375 C 1146.753906 996.824219 1224.90625 950.058594 1242 907.257812 C 1244.726562 900.421875 1241.457031 885.832031 1235.921875 881.867188 C 1171.464844 835.714844 1132.671875 772.046875 1117.792969 696.359375 C 1104.917969 630.839844 1101.253906 563.507812 1093.519531 496.980469 Z M 750.476562 1056.074219 C 726.675781 1081.148438 708.304688 1101.320312 689.046875 1120.605469 C 656.863281 1152.835938 637.765625 1150.707031 612.394531 1112.867188 C 583.75 1070.136719 555.164062 1027.40625 526.640625 984.667969 C 465.097656 1011.316406 412.941406 1046.5625 369.488281 1093.90625 C 313.632812 1154.769531 279.820312 1225.707031 276.246094 1309.160156 C 273.746094 1367.523438 296.886719 1397.140625 354.453125 1411.28125 C 470.671875 1439.832031 589.207031 1446.878906 708.253906 1448.066406 C 856.570312 1449.542969 1004.558594 1445.984375 1149.71875 1410.542969 C 1201.53125 1397.894531 1224.675781 1366.71875 1223.886719 1313.597656 C 1221.875 1177.871094 1113.320312 1035.707031 972.160156 986.113281 C 942.871094 1030.058594 913.515625 1074.726562 883.492188 1118.9375 C 863.28125 1148.699219 841.84375 1151.03125 816.171875 1125.695312 C 794.78125 1104.582031 774.828125 1082.007812 750.476562 1056.074219 Z M 651.289062 358.65625 C 616.695312 413.160156 575.550781 457.152344 510.929688 472.265625 C 505.96875 473.425781 500.609375 485.355469 500.4375 492.40625 C 499.480469 530.421875 498.714844 568.542969 500.4375 606.511719 C 506.164062 732.402344 595.285156 830.398438 718.503906 847.757812 C 834.59375 864.113281 950.355469 790.890625 987.089844 676.917969 C 1008.203125 611.40625 997.949219 544.054688 999.601562 476.300781 C 872.796875 466.730469 748.539062 457.863281 651.289062 358.652344 Z M 576.523438 968.988281 L 650.535156 1079.214844 L 716.230469 1020.320312 C 701.089844 1007.226562 686.574219 995.945312 673.53125 983.15625 C 636.957031 947.304688 631.234375 946.046875 576.523438 968.988281 Z M 846.839844 1083.625 L 922.699219 969.414062 C 864.074219 941.367188 834.882812 954.144531 789.550781 1025.871094 Z M 673.78125 895.804688 C 682.339844 939.1875 724.851562 955.175781 750.183594 990.25 C 774.871094 954.730469 818.242188 939.296875 825.917969 895.804688 Z M 673.78125 895.804688 " fill-opacity="1" fill-rule="nonzero"/></g></svg>