<svg xmlns="http://www.w3.org/2000/svg" xmlns:xlink="http://www.w3.org/1999/xlink" width="2000" zoomAndPan="magnify" viewBox="0 0 1500 1499.999933" height="2000" preserveAspectRatio="xMidYMid meet" version="1.0"><defs><clipPath id="a259419504"><path d="M 234.546875 932 L 1265 932 L 1265 1496 L 234.546875 1496 Z M 234.546875 932 " clip-rule="nonzero"/></clipPath></defs><path fill="#fdb90a" d="M 502.273438 157.148438 C 515.214844 130.296875 542.835938 88.449219 597.871094 57.339844 C 652.746094 26.3125 736.183594 5.390625 862.304688 25.164062 C 989.085938 45.035156 1067.296875 97.925781 1112.902344 159.546875 C 1183.386719 254.765625 1176.261719 372.449219 1145.347656 434.265625 C 1139.261719 446.449219 1124.425781 451.394531 1112.242188 445.308594 C 1100.058594 439.210938 1095.113281 424.375 1101.199219 412.191406 C 1126.347656 361.90625 1130.570312 266.371094 1073.234375 188.90625 C 1033.625 135.390625 964.769531 91.179688 854.664062 73.929688 C 743.875 56.554688 670.351562 73.058594 622.160156 100.300781 C 555.214844 138.144531 539.984375 195.628906 539.984375 195.628906 C 538.085938 203.257812 532.660156 209.539062 525.375 212.511719 C 518.089844 215.5 509.828125 214.828125 503.117188 210.710938 C 503.117188 210.710938 478.65625 195.984375 447.925781 200.722656 C 426.339844 204.050781 402.402344 217.484375 380.546875 250.125 C 327.167969 329.804688 380.546875 409.496094 380.546875 409.496094 C 388.128906 420.824219 385.089844 436.164062 373.765625 443.742188 C 362.453125 451.320312 347.113281 448.285156 339.53125 436.972656 C 339.53125 436.972656 267.761719 329.804688 339.53125 222.648438 C 371.769531 174.535156 408.5625 156.855469 440.394531 151.945312 C 464.613281 148.210938 486.382812 152.152344 502.273438 157.148438 Z M 502.273438 157.148438 " fill-opacity="1" fill-rule="evenodd"/><path fill="#fdb90a" d="M 1226.386719 493.21875 C 1226.386719 440.9375 1184 398.550781 1131.707031 398.550781 C 1103.082031 398.550781 1076.5625 398.550781 1076.5625 398.550781 C 1062.9375 398.550781 1051.882812 409.609375 1051.882812 423.234375 L 1051.882812 563.359375 C 1051.882812 577 1062.9375 588.042969 1076.5625 588.042969 L 1131.707031 588.042969 C 1184 588.042969 1226.386719 545.65625 1226.386719 493.378906 Z M 1101.246094 447.917969 L 1101.246094 538.691406 L 1131.707031 538.691406 C 1156.734375 538.691406 1177.023438 518.402344 1177.023438 493.378906 L 1177.023438 493.230469 C 1177.023438 468.203125 1156.734375 447.917969 1131.707031 447.917969 Z M 1101.246094 447.917969 " fill-opacity="1" fill-rule="evenodd"/><path fill="#fdb90a" d="M 272.792969 493.21875 L 272.792969 493.378906 C 272.792969 545.65625 315.167969 588.042969 367.460938 588.042969 C 396.085938 588.042969 422.605469 588.042969 422.605469 588.042969 C 436.230469 588.042969 447.289062 577 447.289062 563.359375 L 447.289062 423.234375 C 447.289062 409.609375 436.230469 398.550781 422.605469 398.550781 C 422.605469 398.550781 396.085938 398.550781 367.460938 398.550781 C 315.167969 398.550781 272.792969 440.9375 272.792969 493.21875 Z M 397.933594 447.917969 L 367.460938 447.917969 C 342.433594 447.917969 322.148438 468.203125 322.148438 493.230469 L 322.148438 493.378906 C 322.148438 518.402344 342.433594 538.691406 367.460938 538.691406 L 397.933594 538.691406 Z M 397.933594 447.917969 " fill-opacity="1" fill-rule="evenodd"/><path fill="#fdb90a" d="M 666.703125 1154.351562 L 739.320312 1121.109375 C 751.695312 1115.441406 766.351562 1120.890625 772.019531 1133.269531 C 777.703125 1145.660156 772.242188 1160.316406 759.863281 1165.984375 L 657.824219 1212.703125 C 650.835938 1215.898438 642.742188 1215.65625 635.945312 1212.03125 C 629.152344 1208.417969 624.4375 1201.832031 623.203125 1194.230469 L 585.101562 960.671875 C 582.910156 947.230469 592.03125 934.535156 605.472656 932.339844 C 618.917969 930.148438 631.613281 939.285156 633.804688 952.726562 Z M 666.703125 1154.351562 " fill-opacity="1" fill-rule="evenodd"/><path fill="#fdb90a" d="M 832.464844 1154.351562 L 865.363281 952.726562 C 867.554688 939.285156 880.253906 930.148438 893.695312 932.339844 C 907.140625 934.53125 916.273438 947.230469 914.082031 960.671875 L 875.96875 1194.230469 C 874.730469 1201.832031 870.015625 1208.417969 863.222656 1212.03125 C 856.4375 1215.65625 848.347656 1215.898438 841.34375 1212.703125 L 739.316406 1165.984375 C 726.929688 1160.316406 721.480469 1145.660156 727.148438 1133.269531 C 732.816406 1120.890625 747.472656 1115.441406 759.863281 1121.109375 Z M 832.464844 1154.351562 " fill-opacity="1" fill-rule="evenodd"/><path fill="#fdb90a" d="M 769.328125 1158.355469 L 909.464844 971.507812 C 917.632812 960.613281 915.429688 945.136719 904.53125 936.957031 C 893.636719 928.789062 878.148438 930.996094 869.980469 941.890625 L 729.84375 1128.738281 C 721.675781 1139.636719 723.878906 1155.125 734.777344 1163.289062 C 745.671875 1171.46875 761.160156 1169.253906 769.328125 1158.355469 Z M 769.328125 1158.355469 " fill-opacity="1" fill-rule="evenodd"/><path fill="#fdb90a" d="M 749.589844 1102.414062 L 869.980469 941.890625 C 878.148438 930.996094 893.636719 928.789062 904.53125 936.957031 C 915.429688 945.136719 917.632812 960.613281 909.464844 971.507812 L 769.328125 1158.355469 C 764.675781 1164.574219 757.351562 1168.222656 749.589844 1168.222656 C 741.816406 1168.222656 734.507812 1164.574219 729.84375 1158.355469 L 589.703125 971.507812 C 581.535156 960.613281 583.753906 945.136719 594.648438 936.957031 C 605.546875 928.789062 621.023438 930.996094 629.199219 941.890625 Z M 749.589844 1102.414062 " fill-opacity="1" fill-rule="evenodd"/><path fill="#fdb90a" d="M 1101.246094 423.234375 C 1101.246094 417.40625 1099.179688 411.761719 1095.417969 407.304688 L 955.28125 241.382812 C 950.589844 235.835938 943.699219 232.628906 936.425781 232.628906 L 562.742188 232.628906 C 555.472656 232.628906 548.578125 235.835938 543.886719 241.382812 L 403.75 407.304688 C 399.992188 411.761719 397.933594 417.40625 397.933594 423.234375 L 397.933594 563.359375 C 397.933594 757.578125 555.371094 915.03125 749.589844 915.03125 L 749.589844 890.347656 L 749.589844 915.03125 C 943.796875 915.03125 1101.246094 757.578125 1101.246094 563.359375 Z M 1051.882812 432.257812 L 924.964844 281.980469 L 574.203125 281.980469 L 447.289062 432.257812 L 447.289062 563.359375 C 447.289062 730.324219 582.625 865.664062 749.589844 865.664062 L 749.589844 890.347656 L 749.589844 865.664062 C 916.542969 865.664062 1051.882812 730.324219 1051.882812 563.359375 Z M 1051.882812 432.257812 " fill-opacity="1" fill-rule="evenodd"/><g clip-path="url(#a259419504)"><path fill="#fdb90a" d="M 1264.734375 1211.835938 C 1264.734375 1137.628906 1235.25 1066.457031 1182.777344 1013.980469 C 1130.300781 961.503906 1059.128906 932.023438 984.921875 932.023438 C 840.007812 932.023438 659.171875 932.023438 514.257812 932.023438 C 440.039062 932.023438 368.867188 961.503906 316.394531 1013.980469 C 263.917969 1066.457031 234.433594 1137.628906 234.433594 1211.835938 C 234.433594 1340.882812 234.433594 1470.527344 234.433594 1470.527344 C 234.433594 1484.152344 245.492188 1495.210938 259.117188 1495.210938 L 1240.050781 1495.210938 C 1253.691406 1495.210938 1264.734375 1484.152344 1264.734375 1470.527344 Z M 1215.378906 1445.84375 L 1215.378906 1211.835938 C 1215.378906 1150.714844 1191.089844 1092.105469 1147.871094 1048.886719 C 1104.652344 1005.667969 1046.042969 981.375 984.921875 981.375 C 840.007812 981.375 659.171875 981.375 514.257812 981.375 C 453.140625 981.375 394.519531 1005.667969 351.300781 1048.886719 C 308.078125 1092.105469 283.800781 1150.714844 283.800781 1211.835938 L 283.800781 1445.84375 Z M 1215.378906 1445.84375 " fill-opacity="1" fill-rule="evenodd"/></g><path fill="#fdb90a" d="M 493.996094 1470.527344 L 493.996094 1330.386719 C 493.996094 1316.773438 482.941406 1305.71875 469.3125 1305.71875 C 455.699219 1305.71875 444.644531 1316.773438 444.644531 1330.386719 L 444.644531 1470.527344 C 444.644531 1484.140625 455.699219 1495.210938 469.3125 1495.210938 C 482.941406 1495.210938 493.996094 1484.140625 493.996094 1470.527344 Z M 493.996094 1470.527344 " fill-opacity="1" fill-rule="evenodd"/><path fill="#fdb90a" d="M 1054.539062 1470.527344 L 1054.539062 1330.386719 C 1054.539062 1316.773438 1043.46875 1305.71875 1029.855469 1305.71875 C 1016.226562 1305.71875 1005.171875 1316.773438 1005.171875 1330.386719 L 1005.171875 1470.527344 C 1005.171875 1484.140625 1016.226562 1495.210938 1029.855469 1495.210938 C 1043.46875 1495.210938 1054.539062 1484.140625 1054.539062 1470.527344 Z M 1054.539062 1470.527344 " fill-opacity="1" fill-rule="evenodd"/><path fill="#fdb90a" d="M 666.566406 937.054688 L 666.566406 872.191406 C 666.566406 858.574219 655.5 847.519531 641.886719 847.519531 C 628.257812 847.519531 617.203125 858.574219 617.203125 872.191406 L 617.203125 937.054688 C 617.203125 950.683594 628.257812 961.738281 641.886719 961.738281 C 655.5 961.738281 666.566406 950.683594 666.566406 937.054688 Z M 666.566406 937.054688 " fill-opacity="1" fill-rule="evenodd"/><path fill="#fdb90a" d="M 881.964844 937.054688 L 881.964844 872.191406 C 881.964844 858.574219 870.910156 847.519531 857.285156 847.519531 C 843.667969 847.519531 832.613281 858.574219 832.613281 872.191406 L 832.613281 937.054688 C 832.613281 950.683594 843.667969 961.738281 857.285156 961.738281 C 870.910156 961.738281 881.964844 950.683594 881.964844 937.054688 Z M 881.964844 937.054688 " fill-opacity="1" fill-rule="evenodd"/></svg>